# xmcd
#
# Track frame offsets: 
#        150
#        17050
#        37200
#        52788
#        65103
#        80603
#        94948
#        112685
#        128388
#        139973
#        153780
#        163935
#        178585
#        195588
#        212543
#
# Disc length: 3018 seconds
#
# Revision: 6
# Processed by: cddbd v1.5.2PL0 Copyright (c) Steve Scherf et al.
# Submitted via: ExactAudioCopyFreeDBPlugin 1.0
#
DISCID=c50bc80f
DTITLE=Various Artist - Cazuza e Barão Vermelho Melhores Momentos
DYEAR=1989
DGENRE=Rock
TTITLE0=Exagerado - Cazuza
TTITLE1=Pro Dia Nascer Feliz - Barão Vermelho
TTITLE2=Bete Balanço - Barão Vermelho
TTITLE3=Maior Abandonado - Barão Vermelho
TTITLE4=Subproduto do Rock (Geração do Rock) - Barão Vermelho
TTITLE5=Torre de Babel - Barão Vermelho
TTITLE6=Declare Guerra - Barão Vermelho
TTITLE7=Eclipse Oculto - Barão Vermelho
TTITLE8=Codinome Beija-flor - Cazuza
TTITLE9=Eu Queria Ter Uma Bomba - Barão Vermelho
TTITLE10=Todo Amor que Houver Nessa Vida - Barão Vermelho
TTITLE11=Down em Mim - Barão Vermelho
TTITLE12=Só as Mães são Felizes - Cazuza
TTITLE13=Mal Nenhum - Cazuza
TTITLE14=Luz Negra - Cazuza
EXTD=
EXTT0=
EXTT1=
EXTT2=
EXTT3=
EXTT4=
EXTT5=
EXTT6=
EXTT7=
EXTT8=
EXTT9=
EXTT10=
EXTT11=
EXTT12=
EXTT13=
EXTT14=
PLAYORDER=
